<svg width="25" height="25" viewBox="0 0 25 25" fill="none" xmlns="http://www.w3.org/2000/svg">
<path fill-rule="evenodd" clip-rule="evenodd" d="M4.64896 7.20225L8.44402 10.9929C8.82353 11.372 9.39279 11.372 9.67742 11.0877L11.0057 9.76094C11.3852 9.38188 11.3852 8.81328 11.0057 8.43421L7.21063 4.64355C6.926 4.26449 7.21063 3.79066 7.59013 3.79066H8.5389C9.10816 3.79066 9.48767 3.41159 9.48767 2.84299V0.947664C9.48767 0.379066 9.10816 0 8.5389 0H0.948767C0.379507 0 0 0.379066 0 0.947664V8.52898C0 9.09758 0.379507 9.47664 0.948767 9.47664H2.8463C3.41556 9.47664 3.79507 9.09758 3.79507 8.52898V7.58131C3.79507 7.10748 4.36433 6.91795 4.64896 7.20225ZM15.4973 22.2376V24.1327C15.4973 24.7012 15.8737 25.0802 16.5323 24.9855H24.0591C24.6237 24.9855 25 24.6065 25 24.0379V16.4576C25 15.889 24.6237 15.51 24.0591 15.51H22.1774C21.6129 15.51 21.2366 15.889 21.2366 16.4576V17.4051C21.2366 17.8789 20.672 18.0684 20.3898 17.7841L16.6263 13.9939C16.25 13.6149 15.6855 13.6149 15.3091 13.9939L13.9919 15.3205C13.6156 15.6995 13.6156 16.2681 13.9919 16.6471L17.7554 20.4373C18.0376 20.8163 17.7554 21.2901 17.379 21.2901H16.4382C15.8737 21.2901 15.4973 21.6691 15.4973 22.2376Z" fill="#3B4C7C"/>
</svg>
