<svg width="27" height="25" viewBox="0 0 27 25" fill="none" xmlns="http://www.w3.org/2000/svg">
<path d="M11.0769 0H0.923057C0.413256 0 0 0.861058 0 1.92304V23.077C0 24.1391 0.413256 25 0.923057 25H11.0769C11.5868 25 12 24.1391 12 23.077V1.92304C12 0.861058 11.5867 0 11.0769 0Z" fill="#3B4C7C"/>
<path d="M26.0769 0H15.9231C15.4133 0 15 0.861058 15 1.92304V23.077C15 24.1391 15.4133 25 15.9231 25H26.0769C26.5868 25 27 24.1391 27 23.077V1.92304C27 0.861058 26.5867 0 26.0769 0Z" fill="#3B4C7C"/>
</svg>
