<svg width="26" height="21" viewBox="0 0 26 21" fill="none" xmlns="http://www.w3.org/2000/svg">
<path fill-rule="evenodd" clip-rule="evenodd" d="M10.8 18.884L4.8 14.084H0V6.88403H4.8L10.8 2.08403V18.884Z" fill="#3B4C7C"/>
<path d="M21.3327 19.8164C20.8641 20.2851 20.1043 20.2852 19.6356 19.8167C19.1669 19.3481 19.1668 18.5883 19.6354 18.1196L21.3327 19.8164ZM19.6354 2.84842C19.1668 2.37972 19.1669 1.61992 19.6356 1.15136C20.1043 0.682802 20.8641 0.682917 21.3327 1.15162L19.6354 2.84842ZM17.0967 15.5804C16.6281 16.0491 15.8683 16.0492 15.3996 15.5807C14.9309 15.1121 14.9308 14.3523 15.3994 13.8836L17.0967 15.5804ZM15.3994 7.09642C14.9308 6.62772 14.9309 5.86792 15.3996 5.39936C15.8683 4.9308 16.6281 4.93092 17.0967 5.39962L15.3994 7.09642ZM19.6354 18.1196C23.8515 13.9022 23.8515 7.06582 19.6354 2.84842L21.3327 1.15162C26.4857 6.30622 26.4857 14.6618 21.3327 19.8164L19.6354 18.1196ZM15.3994 13.8836C17.2732 12.0092 17.2732 8.97082 15.3994 7.09642L17.0967 5.39962C19.9075 8.21122 19.9075 12.7688 17.0967 15.5804L15.3994 13.8836Z" fill="#3B4C7C"/>
</svg>
